<svg width="73" height="68" viewBox="0 0 73 68" fill="none" xmlns="http://www.w3.org/2000/svg">
<path d="M1.73654 66.9055C1.82048 67.1686 2.10178 67.3138 2.36486 67.2299L6.65197 65.8622C6.91505 65.7783 7.06028 65.4969 6.97635 65.2339C6.89242 64.9708 6.61111 64.8256 6.34803 64.9095L2.53727 66.1252L1.32151 62.3145C1.23758 62.0514 0.956274 61.9062 0.693195 61.9901C0.430117 62.074 0.284889 62.3553 0.368819 62.6184L1.73654 66.9055ZM71.7566 0.283036C41.6027 13.8061 16.9287 37.1592 1.7686 66.5242L2.65718 66.9829C17.7134 37.8191 42.2185 14.6259 72.1658 1.19548L71.7566 0.283036Z" fill="white"/>
</svg>
