<svg width="70" height="71" viewBox="0 0 70 71" fill="none" xmlns="http://www.w3.org/2000/svg">
<path d="M67.8958 0.693964C67.8011 0.434567 67.514 0.301041 67.2546 0.395734L63.0275 1.93885C62.7681 2.03354 62.6345 2.32058 62.7292 2.57999C62.8239 2.83939 63.111 2.97291 63.3704 2.87821L67.1278 1.50656L68.4995 5.26403C68.5942 5.52343 68.8812 5.65695 69.1406 5.56226C69.4 5.46756 69.5336 5.18052 69.4389 4.92112L67.8958 0.693964ZM0.678576 70.1434C30.25 55.39 53.9415 31.0407 67.8794 1.0763L66.9727 0.654541C53.1302 30.4137 29.6011 54.5963 0.232154 69.2485L0.678576 70.1434Z" fill="white"/>
</svg>
