<svg width="40" height="40" viewBox="0 0 40 40" fill="none" xmlns="http://www.w3.org/2000/svg">
<path d="M37.2773 28.1701C35.9531 22.5266 31.8308 14.6638 19.3626 13.0027V8.02624C19.3626 6.98881 18.7344 6.05406 17.7753 5.65856C16.8162 5.2623 15.7126 5.48439 14.9802 6.21911L3.65899 17.5966C2.33635 18.9261 2.33558 21.0739 3.65823 22.4034L14.9802 33.7809C15.7111 34.5156 16.817 34.7377 17.7761 34.3414C18.7351 33.9452 19.3634 33.0104 19.3634 31.9738V27.1586C23.6173 27.1639 29.7498 27.7237 34.1125 30.4389C34.8373 30.8907 35.7614 30.861 36.4551 30.3621C37.1472 29.8662 37.4727 29.0007 37.2773 28.1701Z" fill="white"/>
</svg>
