<svg width="40" height="40" viewBox="0 0 40 40" fill="none" xmlns="http://www.w3.org/2000/svg">
<path d="M30.9717 7.33334C31.7131 7.33334 32.6667 8.0655 32.6667 9.31652L32.6667 12.6835C32.6667 13.9345 31.7131 14.6667 30.9717 14.6667L27.0285 14.6667C26.2871 14.6667 25.3334 13.9344 25.3334 12.6835L25.3334 9.31652C25.3334 8.06559 26.2871 7.33334 27.0285 7.33334L30.9717 7.33334Z" stroke="white" stroke-width="8"/>
<path d="M12.9716 7.33334C13.713 7.33334 14.6667 8.0656 14.6667 9.31652L14.6667 12.6835C14.6667 13.9344 13.713 14.6667 12.9716 14.6667L9.02842 14.6667C8.28711 14.6667 7.33341 13.9345 7.33341 12.6835L7.33342 9.31652C7.33342 8.0655 8.28711 7.33334 9.02842 7.33334L12.9716 7.33334Z" stroke="white" stroke-width="8"/>
<path d="M12.9716 25.3333C13.7131 25.3333 14.6667 26.0656 14.6667 27.3165L14.6667 30.6835C14.6667 31.9344 13.7131 32.6667 12.9716 32.6667L9.02842 32.6667C8.28708 32.6667 7.33342 31.9345 7.33342 30.6835L7.33342 27.3165C7.33342 26.0655 8.28708 25.3333 9.02842 25.3333L12.9716 25.3333Z" stroke="white" stroke-width="8"/>
<mask id="path-4-inside-1_188_942" fill="white">
<path d="M36.6667 29C36.6667 24.7899 33.2088 21.3333 29.0001 21.3333C24.7913 21.3333 21.3334 24.7899 21.3334 29C21.3334 33.2101 24.7913 36.6667 29.0001 36.6667C33.2088 36.6667 36.6667 33.2101 36.6667 29ZM32.2868 29C32.2868 30.857 30.8595 32.2847 29.0001 32.2847C27.1407 32.2847 25.7134 30.857 25.7134 29C25.7134 27.1431 27.1407 25.7152 29.0001 25.7152C30.8595 25.7152 32.2868 27.1431 32.2868 29Z"/>
</mask>
<path d="M44.6667 29C44.6667 20.3707 37.6262 13.3333 29.0001 13.3333L29.0001 29.3333C28.9483 29.3333 28.8899 29.3212 28.8409 29.3004C28.7975 29.2819 28.7713 29.2612 28.7552 29.2451C28.7391 29.2289 28.7183 29.2026 28.6998 29.1591C28.6788 29.1099 28.6667 29.0516 28.6667 29L44.6667 29ZM29.0001 13.3333C20.374 13.3333 13.3334 20.3707 13.3334 29L29.3334 29C29.3334 29.0516 29.3213 29.1099 29.3004 29.1591C29.2819 29.2026 29.2611 29.2289 29.245 29.2451C29.2288 29.2612 29.2026 29.2819 29.1593 29.3004C29.1102 29.3212 29.0519 29.3333 29.0001 29.3333L29.0001 13.3333ZM13.3334 29C13.3334 37.6293 20.374 44.6667 29.0001 44.6667L29.0001 28.6667C29.0519 28.6667 29.1102 28.6788 29.1593 28.6997C29.2026 28.7181 29.2288 28.7388 29.245 28.7549C29.2611 28.7711 29.2819 28.7974 29.3004 28.8409C29.3213 28.8901 29.3334 28.9485 29.3334 29L13.3334 29ZM29.0001 44.6667C37.6262 44.6667 44.6667 37.6294 44.6667 29L28.6667 29C28.6667 28.9485 28.6788 28.8901 28.6998 28.8409C28.7183 28.7974 28.7391 28.7711 28.7552 28.7549C28.7713 28.7388 28.7975 28.7181 28.8409 28.6997C28.8899 28.6788 28.9483 28.6667 29.0001 28.6667L29.0001 44.6667ZM24.2868 29C24.2868 26.4363 26.4436 24.2847 29.0001 24.2847L29.0001 40.2847C35.2754 40.2847 40.2868 35.2776 40.2868 29L24.2868 29ZM29.0001 24.2847C31.5566 24.2847 33.7134 26.4363 33.7134 29L17.7134 29C17.7134 35.2776 22.7247 40.2847 29.0001 40.2847L29.0001 24.2847ZM33.7134 29C33.7134 31.5634 31.5569 33.7152 29.0001 33.7152L29.0001 17.7152C22.7244 17.7152 17.7134 22.7228 17.7134 29L33.7134 29ZM29.0001 33.7152C26.4432 33.7152 24.2868 31.5634 24.2868 29L40.2868 29C40.2868 22.7228 35.2757 17.7152 29.0001 17.7152L29.0001 33.7152Z" fill="white" mask="url(#path-4-inside-1_188_942)"/>
</svg>
