<svg width="18" height="22" viewBox="0 0 18 22" fill="none" xmlns="http://www.w3.org/2000/svg">
<path fill-rule="evenodd" clip-rule="evenodd" d="M12.9939 17.0026C16.2823 17.0471 18.3052 14.5085 17.1925 11.8363C16.0798 9.16407 14.9705 8.56285 13.2238 6.6255C11.4763 4.68815 8.93519 1.33677 8.9472 0.546265C8.96007 1.33677 6.52363 4.68815 4.77609 6.6255C3.0294 8.56285 1.92099 9.16407 0.807438 11.8363C-0.30526 14.5085 1.71853 17.0471 5.00601 17.0026C7.26314 16.972 8.2789 15.4096 8.69326 14.4327L8.69326 15.7112C8.69326 15.7112 7.97263 20.3228 2.88699 20.8276L2.07627 20.8276L2.07627 21.5463L15.9245 21.5463L15.9245 20.8276L15.1129 20.8276C10.0282 20.3228 9.30666 15.7112 9.30666 15.7112L9.30666 14.6006C9.79481 15.5785 10.862 16.9737 12.9939 17.0026Z" fill="black"/>
</svg>
