<svg width="18" height="20" viewBox="0 0 18 20" fill="none" xmlns="http://www.w3.org/2000/svg">
<path fill-rule="evenodd" clip-rule="evenodd" d="M13.6086 6.9275C13.079 6.9275 12.5744 7.04493 12.1142 7.25681C12.5463 6.56363 12.7999 5.72387 12.7999 4.81822C12.7999 2.44185 11.0575 0.515381 8.90841 0.515381C6.75927 0.515381 5.01701 2.44185 5.01701 4.81822C5.01701 5.68047 5.24727 6.48276 5.64218 7.15595C5.24953 7.00862 4.82909 6.9275 4.3914 6.9275C2.24218 6.9275 0.5 8.85397 0.5 11.2303C0.5 13.6067 2.24218 15.5332 4.3914 15.5332C4.87677 15.5332 5.34105 15.4341 5.76955 15.2545C5.76947 15.2555 7.58057 14.7147 8.7711 12.3187V13.7614C8.7711 13.7614 8.1607 18.3089 3.85729 18.8067H3.17051V19.5154H14.8905V18.8067H14.2038C9.90039 18.3089 9.28991 13.7614 9.28991 13.7614V12.4158C9.51166 12.9558 10.7377 15.5957 13.493 15.5302C13.5315 15.5312 13.5698 15.5332 13.6086 15.5332C15.7578 15.5332 17.5 13.6067 17.5 11.2303C17.5 8.85397 15.7578 6.9275 13.6086 6.9275Z" fill="black"/>
</svg>
